<mxfile host="app.diagrams.net" agent="Mozilla/5.0 (Windows NT 10.0; Win64; x64) AppleWebKit/537.36 (KHTML, like Gecko) Chrome/138.0.0.0 Safari/537.36 Edg/138.0.0.0" version="28.0.6">
  <diagram name="第 1 页" id="7rGuARo3LyD56dz1bq1E">
    <mxGraphModel dx="1034" dy="604" grid="1" gridSize="10" guides="1" tooltips="1" connect="1" arrows="1" fold="1" page="1" pageScale="1" pageWidth="1169" pageHeight="827" math="0" shadow="0">
      <root>
        <mxCell id="0" />
        <mxCell id="1" parent="0" />
        <mxCell id="oa7dabjQe_ooMTG9WSKU-2" value="开始" style="strokeWidth=2;html=1;shape=mxgraph.flowchart.start_2;whiteSpace=wrap;" vertex="1" parent="1">
          <mxGeometry x="430" y="30" width="100" height="100" as="geometry" />
        </mxCell>
        <mxCell id="oa7dabjQe_ooMTG9WSKU-8" style="edgeStyle=orthogonalEdgeStyle;rounded=0;orthogonalLoop=1;jettySize=auto;html=1;exitX=0;exitY=0.5;exitDx=0;exitDy=0;exitPerimeter=0;entryX=0.5;entryY=0;entryDx=0;entryDy=0;" edge="1" parent="1" source="oa7dabjQe_ooMTG9WSKU-4" target="oa7dabjQe_ooMTG9WSKU-6">
          <mxGeometry relative="1" as="geometry" />
        </mxCell>
        <mxCell id="oa7dabjQe_ooMTG9WSKU-9" value="结构化数据" style="edgeLabel;html=1;align=center;verticalAlign=middle;resizable=0;points=[];" vertex="1" connectable="0" parent="oa7dabjQe_ooMTG9WSKU-8">
          <mxGeometry x="-0.3582" y="1" relative="1" as="geometry">
            <mxPoint as="offset" />
          </mxGeometry>
        </mxCell>
        <mxCell id="oa7dabjQe_ooMTG9WSKU-4" value="结构化数据还是非结构化数据" style="strokeWidth=2;html=1;shape=mxgraph.flowchart.decision;whiteSpace=wrap;" vertex="1" parent="1">
          <mxGeometry x="390" y="170" width="180" height="160" as="geometry" />
        </mxCell>
        <mxCell id="oa7dabjQe_ooMTG9WSKU-5" style="edgeStyle=orthogonalEdgeStyle;rounded=0;orthogonalLoop=1;jettySize=auto;html=1;exitX=0.5;exitY=1;exitDx=0;exitDy=0;exitPerimeter=0;entryX=0.5;entryY=0;entryDx=0;entryDy=0;entryPerimeter=0;" edge="1" parent="1" source="oa7dabjQe_ooMTG9WSKU-2" target="oa7dabjQe_ooMTG9WSKU-4">
          <mxGeometry relative="1" as="geometry" />
        </mxCell>
        <mxCell id="oa7dabjQe_ooMTG9WSKU-6" value="用户输入提示词：&lt;br&gt;如去除缺失对于3个的数据、对空缺数据使用向下填充" style="rounded=1;whiteSpace=wrap;html=1;absoluteArcSize=1;arcSize=14;strokeWidth=2;" vertex="1" parent="1">
          <mxGeometry x="120" y="330" width="260" height="100" as="geometry" />
        </mxCell>
        <mxCell id="oa7dabjQe_ooMTG9WSKU-7" value="用户输入提示词：&lt;br&gt;如对文档根据语义、段落进行分块比较，去除重复率超过80%的数据。" style="rounded=1;whiteSpace=wrap;html=1;absoluteArcSize=1;arcSize=14;strokeWidth=2;" vertex="1" parent="1">
          <mxGeometry x="582" y="330" width="260" height="100" as="geometry" />
        </mxCell>
        <mxCell id="oa7dabjQe_ooMTG9WSKU-10" style="edgeStyle=orthogonalEdgeStyle;rounded=0;orthogonalLoop=1;jettySize=auto;html=1;exitX=1;exitY=0.5;exitDx=0;exitDy=0;exitPerimeter=0;entryX=0.542;entryY=0;entryDx=0;entryDy=0;entryPerimeter=0;" edge="1" parent="1" source="oa7dabjQe_ooMTG9WSKU-4" target="oa7dabjQe_ooMTG9WSKU-7">
          <mxGeometry relative="1" as="geometry" />
        </mxCell>
        <mxCell id="oa7dabjQe_ooMTG9WSKU-11" value="非结构化、半结构化" style="edgeLabel;html=1;align=center;verticalAlign=middle;resizable=0;points=[];" vertex="1" connectable="0" parent="oa7dabjQe_ooMTG9WSKU-10">
          <mxGeometry x="-0.2581" y="1" relative="1" as="geometry">
            <mxPoint as="offset" />
          </mxGeometry>
        </mxCell>
      </root>
    </mxGraphModel>
  </diagram>
</mxfile>
